<svg width="14" height="14" viewBox="0 0 14 14" fill="none" xmlns="http://www.w3.org/2000/svg">
<path fill-rule="evenodd" clip-rule="evenodd" d="M6.85413 1.16666C7.09575 1.16666 7.29163 1.36253 7.29163 1.60416V3.35416C7.29163 3.59578 7.09575 3.79166 6.85413 3.79166C6.6125 3.79166 6.41663 3.59578 6.41663 3.35416V1.60416C6.41663 1.36253 6.6125 1.16666 6.85413 1.16666ZM2.81142 2.81152C2.98227 2.64067 3.25928 2.64067 3.43014 2.81152L4.6843 4.06569C4.85516 4.23654 4.85516 4.51355 4.6843 4.68441C4.51345 4.85526 4.23644 4.85526 4.06559 4.68441L2.81142 3.43024C2.64056 3.25938 2.64056 2.98238 2.81142 2.81152ZM10.8968 2.81152C11.0677 2.98238 11.0677 3.25938 10.8968 3.43024L9.64265 4.68441C9.4718 4.85526 9.19479 4.85526 9.02393 4.68441C8.85308 4.51355 8.85308 4.23654 9.02393 4.06569L10.2781 2.81152C10.449 2.64067 10.726 2.64067 10.8968 2.81152ZM1.16663 6.85416C1.16663 6.61253 1.3625 6.41666 1.60413 6.41666H3.35413C3.59575 6.41666 3.79163 6.61253 3.79163 6.85416C3.79163 7.09578 3.59575 7.29166 3.35413 7.29166H1.60413C1.3625 7.29166 1.16663 7.09578 1.16663 6.85416ZM9.91663 6.85416C9.91663 6.61253 10.1125 6.41666 10.3541 6.41666H12.1041C12.3457 6.41666 12.5416 6.61253 12.5416 6.85416C12.5416 7.09578 12.3457 7.29166 12.1041 7.29166H10.3541C10.1125 7.29166 9.91663 7.09578 9.91663 6.85416ZM4.6843 9.02396C4.85516 9.19482 4.85516 9.47183 4.6843 9.64268L3.43014 10.8968C3.25928 11.0677 2.98227 11.0677 2.81142 10.8968C2.64056 10.726 2.64056 10.449 2.81142 10.2781L4.06559 9.02396C4.23644 8.85311 4.51345 8.85311 4.6843 9.02396ZM9.02393 9.02396C9.19479 8.85311 9.4718 8.85311 9.64265 9.02396L10.8968 10.2781C11.0677 10.449 11.0677 10.726 10.8968 10.8968C10.726 11.0677 10.449 11.0677 10.2781 10.8968L9.02393 9.64268C8.85308 9.47183 8.85308 9.19482 9.02393 9.02396ZM6.85413 9.91666C7.09575 9.91666 7.29163 10.1125 7.29163 10.3542V12.1042C7.29163 12.3458 7.09575 12.5417 6.85413 12.5417C6.6125 12.5417 6.41663 12.3458 6.41663 12.1042V10.3542C6.41663 10.1125 6.6125 9.91666 6.85413 9.91666Z" fill="#257A27"/>
</svg>
