<svg width="20" height="16" viewBox="0 0 20 16" fill="none" xmlns="http://www.w3.org/2000/svg">
<path d="M2.14593 2.03142C2.49269 2.07062 2.80569 2.55782 3.06314 2.75864C3.57418 3.15726 4.07931 3.58775 4.60835 3.96086C5.13515 4.33239 5.63307 4.74958 6.16183 5.11685C6.75525 5.52903 7.45999 5.76298 8.01692 6.22659C8.14164 6.33042 8.33409 6.43785 8.48378 6.49562C8.73494 6.59255 8.9277 6.7274 9.1531 6.86974C9.44932 7.0568 9.77568 7.19467 10.0662 7.38468C10.1339 7.42895 10.335 7.59686 10.4194 7.49187C10.6423 7.21473 10.9463 7.08609 11.2519 6.89916C11.7872 6.57185 12.4426 6.43095 12.9418 6.05004C13.1702 5.87576 13.3661 5.6627 13.6008 5.49307C13.9165 5.26478 14.2668 5.08655 14.5903 4.86884C15.0697 4.54614 15.5271 4.17755 15.9413 3.7717C16.0885 3.62746 16.2394 3.47605 16.4082 3.35765C16.5678 3.24565 16.6878 3.10258 16.8544 3.00665C17.0847 2.87403 17.3586 2.69338 17.565 2.52534C17.7236 2.39627 17.9727 2.34185 18.1538 2.2395C18.1992 2.21381 18.239 2.20125 18.2839 2.17435C18.4264 2.08905 18.1704 2.02429 18.1104 1.98729C17.7553 1.76831 17.4792 1.35916 17.0754 1.22224C16.6014 1.06147 16.0964 1.09552 15.6066 1.03938C15.1459 0.986561 14.6775 0.896459 14.2143 0.896459C13.946 0.896459 13.6253 0.853299 13.3673 0.774555C13.0242 0.669825 12.622 0.707298 12.2683 0.707298C11.8827 0.707298 11.4989 0.669466 11.1115 0.669466C9.49465 0.669466 7.87782 0.669466 6.26099 0.669466C5.95525 0.669466 5.64951 0.669466 5.34378 0.669466C5.00842 0.669466 4.61305 0.669094 4.28609 0.74513C3.93532 0.826704 3.57428 0.853671 3.22427 0.942698C3.11056 0.971622 3.02349 0.983036 2.94126 1.0667C2.89513 1.11363 2.74903 1.19912 2.6851 1.19912C2.5224 1.19912 2.11948 1.45655 2.10874 1.6531C2.09256 1.94952 2.65073 1.8128 2.80285 1.70355C3.11809 1.47714 3.46871 1.28778 3.82955 1.14657C3.88384 1.12533 3.75899 1.2811 3.75312 1.29159C3.66848 1.44282 3.63781 1.63207 3.60025 1.80023C3.54488 2.04808 3.57734 2.14492 3.82335 2.14492C4.56028 2.14492 5.24372 1.77878 5.916 1.51228C6.1951 1.40165 6.47876 1.30042 6.75058 1.17179C6.77306 1.16116 6.90661 1.11605 6.81462 1.09403C6.62259 1.04806 6.38404 1.1793 6.25892 1.31892C6.02959 1.57483 5.8944 2.84525 6.50269 2.56528C6.75074 2.45111 6.97641 2.17612 6.96336 1.8885C6.94238 1.42596 6.33458 1.37626 5.99657 1.35885C5.50281 1.33342 5.30936 1.48969 5.23636 1.98308C5.15664 2.52186 5.19772 3.26936 5.65778 3.63299C6.13082 4.00688 6.7187 3.62287 7.10383 3.29039C7.23745 3.17505 7.56479 2.77501 7.28976 2.61572C7.01924 2.45905 6.44979 2.47809 6.31883 2.81119C6.17019 3.18928 6.23358 3.68671 6.54194 3.95666C6.94814 4.31227 7.74744 4.1398 8.17185 3.89991C8.30233 3.82616 8.48222 3.63302 8.31026 3.49427C8.18663 3.39451 7.93175 3.42133 7.79174 3.44383C7.12665 3.55067 6.93755 4.50271 7.18647 5.04539C7.58499 5.91424 9.06189 5.75228 9.7873 5.54141C9.90615 5.50686 10.7908 5.24109 10.5537 4.95291C10.322 4.67138 9.66079 4.88121 9.42166 5.01806C9.0985 5.203 9.21422 5.64787 9.55387 5.73057C10.0122 5.84217 10.5912 5.64624 10.9214 5.31021C11.1974 5.02943 10.6508 5.03533 10.5041 5.04539C9.99243 5.08049 9.42379 5.56339 9.51668 6.13832C9.57629 6.50724 10.5606 6.38478 10.8037 6.38002C11.0407 6.37538 11.7052 6.44035 11.6568 6.04163C11.61 5.65515 11.1568 5.36146 10.7851 5.47625C10.5013 5.56392 10.2234 6.24088 10.6033 6.38633C10.7993 6.46139 11.0868 6.3271 11.2561 6.24341C11.6842 6.03176 12.0778 5.65665 12.3303 5.24716C12.826 4.44309 12.4858 3.34332 11.6362 2.9478C11.0649 2.68184 9.72497 2.46855 9.35555 3.18531C9.04377 3.79022 9.34861 4.65866 10.1013 4.65866C10.4121 4.65866 10.6658 4.44349 10.8594 4.21728C11.2086 3.80942 11.6192 3.21046 11.6568 2.64935C11.7195 1.71665 10.6156 1.61501 9.94843 1.63208C9.39361 1.64629 8.49511 1.94734 8.6821 2.68718C8.74025 2.91724 9.08097 3.42715 9.3225 3.07391C9.54349 2.75069 9.59871 2.21402 9.28944 1.92633C8.9589 1.61886 8.22857 1.59525 7.84752 1.81494C7.33116 2.11264 7.78688 2.74375 8.16978 2.89736C8.73068 3.12238 9.94432 3.11061 10.0868 2.31306C10.1666 1.86695 9.81596 1.54627 9.3886 1.55852C9.19761 1.564 9.08672 1.68253 9.05394 1.86748C8.98451 2.25922 9.30924 2.59445 9.58279 2.81749C10.6649 3.69978 12.1234 3.714 13.3735 3.23154C13.5645 3.15786 14.2432 2.94229 14.2432 2.62203C14.2432 2.3258 13.6921 2.21994 13.5037 2.17435C13.0195 2.0572 12.524 1.99693 12.0287 1.95576C11.872 1.94273 11.4628 1.83764 11.3428 2.0041C11.2622 2.11593 11.2962 2.32124 11.3284 2.44127C11.4661 2.95516 11.9741 3.1743 12.4501 3.25887C13.3419 3.41729 14.94 3.22016 15.1356 2.06295C15.2143 1.59763 14.7212 1.21896 14.4085 0.972123C14.0572 0.694898 13.6698 0.525416 13.2227 0.50973C12.6305 0.488952 12.6993 1.16522 12.8054 1.59005C12.9816 2.29536 13.5846 2.34226 14.204 2.32567C14.6832 2.31284 15.1313 2.2157 15.5819 2.05034C15.6127 2.03902 16.3647 1.79574 16.276 1.64049C16.2247 1.5508 15.9794 1.57575 15.9 1.58584C15.7334 1.60703 15.6893 1.74649 15.6893 1.90111C15.6893 2.3229 16.0094 2.4124 16.3586 2.40975C16.4543 2.40902 17.2395 2.26097 17.1229 2.20167C16.9916 2.13488 16.7846 2.06964 16.6395 2.1239C16.3861 2.21869 16.1682 2.51165 15.9785 2.69349C15.6502 3.00808 15.3261 3.31831 14.9497 3.57414C14.6909 3.75003 14.4171 3.90142 14.1565 4.07436C14.1099 4.10527 13.8342 4.24336 13.8342 4.31607C13.8342 4.44634 14.0839 4.24962 14.1978 4.18996C14.5253 4.01828 14.8387 3.82045 15.1646 3.6456C15.3194 3.56249 15.211 3.58415 15.0819 3.59936C14.5947 3.65679 14.1663 3.84426 13.7247 4.05545C13.24 4.28723 12.7054 4.53975 12.351 4.96552C12.2546 5.08122 12.177 5.23447 12.2105 5.39008C12.2782 5.70513 12.6904 5.32527 12.7806 5.24716C13.0118 5.04696 13.49 4.71483 13.3074 4.34339C13.085 3.89086 12.3474 3.91903 11.9419 3.92303C11.74 3.92503 11.5195 3.92208 11.347 4.04494C11.2862 4.08821 11.4847 3.98889 11.5536 3.96086" stroke="black" stroke-width="0.75" stroke-linecap="round"/>
<path d="M1.64087 4.41985C1.86556 4.41985 1.74835 4.60829 1.88474 4.68176C2.09466 4.79483 2.23435 5.00298 2.43346 5.13321C2.6708 5.28844 2.89294 5.46823 3.10412 5.66047C3.26297 5.80508 3.68908 5.86748 3.77478 6.06368C3.87655 6.29663 4.23356 6.2469 4.33705 6.40485C4.45445 6.58401 4.93125 6.79641 5.1432 6.83562C5.48894 6.89958 6.04574 7.28176 6.2508 7.4904C6.40369 7.64595 6.82716 7.88194 7.03324 7.94185C7.34438 8.03229 7.59966 8.25785 7.91729 8.35884C8.12913 8.42619 8.31315 8.61588 8.53037 8.63798C8.67828 8.65303 8.9695 8.80663 9.10619 8.8861C9.25328 8.97162 9.48707 9.01861 9.61426 9.14801C9.75058 9.2867 10.0004 9.26692 10.1156 9.41337C10.3657 9.73145 11.1024 9.41355 11.3959 9.35134C11.9387 9.23628 12.2926 8.88536 12.7508 8.58973C12.9603 8.45452 13.1354 8.31943 13.3164 8.17619C13.474 8.05153 13.5765 7.88966 13.7602 7.81779C13.8664 7.77622 13.951 7.64816 14.0311 7.56966C14.16 7.44336 14.3604 7.39182 14.4748 7.2664C14.6639 7.05925 14.8676 6.97376 15.1184 6.86319C15.3519 6.76023 15.4798 6.51111 15.7112 6.41863C15.9738 6.31365 16.1376 6.12603 16.3615 5.93961C16.4655 5.85304 16.6123 5.85414 16.7002 5.75352C16.817 5.61988 17.0188 5.4167 17.188 5.3641C17.3823 5.3037 17.4398 5.18424 17.6148 5.08841C17.8822 4.94189 18.1539 4.81532 18.404 4.6404C18.552 4.53689 18.7525 4.44904 18.8816 4.34403C19.0908 4.17375 19.1206 5.05831 19.139 5.22625C19.1912 5.70481 19.2 6.17206 19.2 6.65298C19.2 7.25224 19.078 7.82696 19.078 8.43121C19.078 9.1572 19.078 9.8832 19.078 10.6092C19.078 11.1296 19.078 11.6499 19.078 12.1703C19.078 12.7473 18.94 13.1719 18.7122 13.6935C18.6434 13.851 18.4743 13.995 18.3938 14.1588C18.3221 14.3046 18.1485 14.2524 18.0415 14.3449C17.9277 14.4433 17.8557 14.5389 17.7096 14.593C17.388 14.712 17.1306 14.9425 16.7612 15.0134C16.3812 15.0864 16.1131 15.2133 15.7213 15.2133C14.8049 15.2133 13.8893 15.3553 12.9811 15.458C12.3474 15.5296 11.6664 15.4614 11.0301 15.4614C10.2674 15.4614 9.49874 15.3994 8.74376 15.3994C8.15778 15.3994 7.5718 15.3994 6.98582 15.3994C6.66123 15.3994 6.21987 15.4194 5.9087 15.3063C5.66822 15.219 5.34264 15.257 5.08562 15.2167C4.81524 15.1744 4.57504 15.1801 4.30996 15.103C3.81865 14.9602 3.29754 14.8128 2.8738 14.531C2.40103 14.2165 1.96091 14.0587 1.68829 13.504C1.54886 13.2203 1.43979 13.0107 1.36651 12.6976C1.27091 12.2891 1.34748 11.8449 1.2615 11.4294C1.16068 10.9421 1.21408 10.4107 1.21408 9.91307C1.21408 9.42447 1.19606 8.94688 1.2886 8.46567C1.37712 8.00535 1.38484 7.55101 1.48844 7.08719C1.59246 6.62157 1.58371 6.09882 1.71538 5.64669C1.78101 5.42135 1.82377 5.12279 1.82377 4.88853C1.82377 4.75997 1.82377 5.35752 1.82377 5.42269C1.82377 5.78392 1.71845 6.32278 1.94571 6.63919C1.99932 6.71382 2.31835 6.71139 2.29798 6.77704C2.2354 6.97866 2.10201 7.23901 2.23023 7.45249C2.35046 7.65265 2.71447 7.59461 2.88396 7.51797C3.10848 7.41644 3.27624 7.39138 3.00928 7.32153C2.85595 7.28142 2.74121 7.13521 2.56895 7.14923C2.40426 7.16263 2.75131 7.48885 2.83992 7.50763C3.19608 7.58312 3.57554 7.46082 3.85608 7.23883C3.97477 7.1449 4.00322 7.00659 3.83237 6.96313C3.66879 6.92152 3.3563 6.82528 3.26332 7.0355C3.08012 7.4497 3.28009 8.16029 3.59865 8.4381C3.95049 8.74493 4.53193 8.90789 4.99416 8.81029C5.25781 8.75461 5.22254 8.33778 5.07884 8.17619C4.48838 7.51221 4.07245 8.74784 4.6148 9.15491C5.14118 9.54998 6.37804 8.55697 5.92564 8.29681C5.30305 7.93878 4.46677 8.00567 3.79511 8.1176C3.55123 8.15824 3.06892 8.19114 2.88057 8.40019C2.73297 8.56401 2.79184 8.95436 2.79928 9.15491C2.81836 9.66932 3.03014 10.5735 3.54446 10.816C4.03561 11.0475 4.66676 10.6402 4.82481 10.1577C4.98662 9.66383 4.75812 8.82053 4.40141 8.46567C4.18215 8.24754 3.21185 7.66798 2.93477 8.05902C2.69926 8.39138 2.81094 8.9833 2.78573 9.36168C2.74377 9.99136 2.74966 10.5626 3.558 10.4817C3.95782 10.4417 4.46708 10.1252 4.53012 9.68906C4.63111 8.99037 3.77344 8.73124 3.23961 8.77583C2.659 8.82432 2.36873 9.29786 2.32508 9.84414C2.28996 10.2836 2.15196 11.0764 2.65702 11.2915C3.22151 11.532 3.8196 11.2309 4.28963 10.9366C4.515 10.7955 5.07361 10.416 4.83158 10.0509C4.51823 9.5782 3.42741 9.85618 3.03638 10.0302C2.50149 10.2683 2.31153 10.6064 2.31153 11.1502C2.31153 12.9518 6.0702 12.1915 6.78259 11.457C7.24575 10.9794 6.11094 10.8119 5.8816 10.8091C5.11871 10.7997 3.48897 10.8585 3.20574 11.8016C3.08394 12.2071 3.17906 12.6908 3.39203 13.0422C3.91012 13.897 4.87672 13.756 5.70547 13.442C6.84971 13.0084 8.30229 12.0965 8.65231 10.8194C8.87143 10.0199 8.60801 9.2309 7.88681 8.81718C6.66381 8.1156 5.89404 9.90612 6.12887 10.8883C6.29583 11.5867 8.18733 10.6554 7.54132 9.789C7.0087 9.07469 5.80571 9.23956 5.18385 9.72697C4.51993 10.2473 4.75193 11.2519 5.2482 11.8154C5.88322 12.5364 7.27065 12.7957 8.03584 12.1393C8.98846 11.3221 7.20806 10.9153 6.72162 10.8642C5.8945 10.7774 5.0521 10.8981 4.24899 11.0986C3.83602 11.2016 3.09059 11.337 2.82638 11.7464C2.54199 12.1871 2.80877 12.5853 3.21929 12.7562C3.76556 12.9835 3.70101 11.4598 3.36155 11.3191C3.20076 11.2525 2.9823 11.3277 2.81283 11.2915C2.3346 11.1895 2.16179 10.4047 2.04733 10.0165C1.93406 9.6323 1.88474 9.20149 1.88474 8.79995C1.88474 8.45648 1.88474 9.48689 1.88474 9.83036C1.88474 10.6651 1.94616 11.4672 2.12862 12.284C2.17978 12.5131 2.22544 13.1897 2.52492 13.2834C2.7124 13.3421 2.90956 13.3098 3.10412 13.3903C3.43978 13.529 3.72017 13.807 4.04576 13.9727C4.35752 14.1313 4.67974 14.2161 5.02804 14.2208C6.16513 14.236 7.3159 14.225 8.42198 13.9244C9.15887 13.7242 10.5114 13.3007 10.7761 12.4426C10.9647 11.8308 10.7404 11.0867 10.0681 10.9607C9.6043 10.8738 8.95586 10.9777 8.77424 11.4914C8.55076 12.1236 8.35487 13.1282 8.60827 13.7728C8.87412 14.449 9.61051 13.9765 9.93266 13.6487C10.4417 13.1308 10.8243 12.2467 10.4136 11.5397C9.92532 10.6989 8.88457 10.6323 8.02229 10.6643C7.30204 10.6911 7.27273 11.0678 7.33809 11.7258C7.42566 12.6074 7.71792 13.3348 8.57779 13.6694C9.4427 14.006 10.8386 13.7707 11.3993 12.9526C11.9028 12.218 11.8409 11.0312 11.5653 10.2267C11.4124 9.78044 10.7421 8.64518 10.102 9.18247C9.74898 9.4788 9.68492 10.0213 9.77685 10.4507C9.98597 11.4275 11.2564 11.6086 12.0666 11.6086C12.3824 11.6086 13.4553 11.711 13.4553 11.1675C13.4553 10.5952 12.9906 10.0449 12.4324 10.0165C12.0882 9.99894 11.5187 10.253 11.7414 10.6988C11.861 10.9382 12.1523 11.0071 12.3917 11.0296C13.0644 11.0929 13.585 10.8581 14.0819 10.4093C14.4875 10.043 14.8882 9.44604 14.4274 8.91023C13.9504 8.3555 13.1065 9.01085 12.8727 9.47195C12.6636 9.88445 12.512 10.793 13.1098 10.9676C13.5135 11.0855 13.8984 10.8765 14.2208 10.6505C14.9098 10.1678 15.5486 9.55324 16.0329 8.85853C16.091 8.77533 16.918 7.28018 16.5342 7.28018C15.9882 7.28018 15.7199 8.1196 15.6773 8.56216C15.5336 10.0537 18.0933 8.42593 18.1398 7.48006C18.1606 7.05571 17.3026 7.14107 17.066 7.15612C16.4661 7.19426 16.0634 7.55568 16.1786 8.22444C16.2735 8.77513 16.976 8.7045 17.3302 8.48635C17.7507 8.22742 18.3874 7.2311 17.6927 6.9459C16.8488 6.59945 15.899 7.17222 15.2031 7.60412C14.9325 7.77207 14.2727 8.05032 14.2615 8.45188C14.2564 8.6333 14.3386 8.68527 14.5189 8.61041C15.2978 8.28693 16.0361 7.68681 16.7375 7.22504C16.9712 7.07121 17.5538 6.80686 17.5538 6.43931C17.5538 6.32855 17.7308 6.16056 17.7977 6.07402C17.8712 5.97874 17.9196 5.85011 18.0415 5.84657C18.3862 5.83655 18.3993 5.92283 18.4378 6.26011C18.5275 7.04454 18.3818 7.9022 18.1804 8.65521C17.8321 9.95783 17.3913 11.2296 16.6359 12.3495C16.3868 12.7187 16.3541 12.6567 16.182 12.2151C15.9411 11.597 15.8045 10.7227 15.9212 10.0578C15.9773 9.73794 16.5738 10.47 16.6663 10.5334C16.8607 10.6665 17.6914 10.9077 17.0525 10.6816C16.2193 10.3867 15.202 10.5442 14.4681 11.0331C13.7551 11.5081 13.528 12.3745 13.706 13.2076C13.8648 13.9511 14.5976 14.6901 15.3386 14.1174C15.7592 13.7923 15.822 12.7505 15.3352 12.4598C14.7064 12.0843 13.541 12.0809 12.8558 12.253C12.2891 12.3954 12.1279 12.7968 12.2021 13.3386C12.2665 13.8092 12.7171 13.8876 13.1166 13.821C13.3067 13.7894 13.8853 13.4154 13.479 13.2317C12.9371 12.9867 12.1938 13.2584 11.7685 13.6074C11.4469 13.8713 11.0081 14.1821 11.1046 14.655C11.3354 15.7863 12.7121 14.593 13.2419 14.593C13.9324 14.593 14.6247 14.6088 15.3149 14.5895C15.5867 14.582 15.9898 14.5925 16.2463 14.4551C16.5726 14.2804 17.1288 14.2499 17.2185 13.8486C17.3211 13.389 17.4398 13.0157 17.7333 12.6424C18.0166 12.2821 18.0844 11.997 17.9467 11.5535C17.8645 11.2885 17.8249 10.8932 17.6148 10.6988C17.4181 10.5169 17.4768 10.5585 17.7401 10.592C17.8873 10.6107 18.3938 10.6241 18.3938 10.3507C18.3938 10.3166 18.2162 10.2301 18.194 10.2094C18.161 10.1788 17.9706 9.89113 17.9196 9.91996C17.715 10.0356 17.8623 11.1411 17.8857 11.326C17.9237 11.6259 18.0415 11.9004 18.0415 12.2048C18.0415 12.4839 18.0415 12.7631 18.0415 13.0422" stroke="black" stroke-width="0.75" stroke-linecap="round"/>
</svg>
