<svg width="225" height="56" viewBox="0 0 225 56" fill="none" xmlns="http://www.w3.org/2000/svg">
<path d="M26.6974 54.438C12.1176 54.438 0.254395 42.5447 0.254395 27.922V25.502H6.54276V27.922C6.54276 39.076 15.582 48.1453 26.6974 48.1453C37.8127 48.1453 46.925 39.0717 46.925 27.922V1.479H53.2134V27.922C53.2134 42.5447 41.3201 54.438 26.6974 54.438Z" fill="#160B00"/>
<path d="M53.8535 52.367L79.1187 0.903809H83.4385L108.704 52.367L103.09 55.0104L97.842 44.2819H64.7152L59.4671 55.0104L53.8535 52.367ZM94.7429 38.0666L81.2808 10.6308L67.8186 38.0666H94.7472H94.7429Z" fill="#160B00"/>
<path d="M115.362 53.8925V2.021H147.105C153.019 2.021 157.652 6.55997 157.652 12.3497C157.652 14.3484 157.059 16.2741 156.006 17.9117C158.68 19.0249 161.091 20.7572 163.021 22.9837C165.97 26.3879 167.594 30.7291 167.594 35.2079C167.594 40.2498 165.471 44.9693 161.62 48.4982C157.824 51.9712 152.77 53.8882 147.393 53.8882H115.362V53.8925ZM147.393 47.6772C154.893 47.6772 161.233 41.9734 161.233 35.2165C161.233 28.4596 155.675 22.6828 148.845 22.6828H121.65V47.6729H147.393V47.6772ZM147.319 16.4675C149.469 16.4675 151.287 14.5848 151.287 12.354C151.287 10.0072 149.486 8.24059 147.1 8.24059H121.65V16.4675H147.319Z" fill="#160B00"/>
<path d="M198.852 54.438C184.552 54.438 172.917 42.8026 172.917 28.5022V1.479H179.205V28.5022C179.205 39.3339 188.016 48.1453 198.848 48.1453C209.68 48.1453 218.491 39.3339 218.491 28.5022V1.479H224.779V28.5022C224.779 42.8026 213.144 54.438 198.844 54.438H198.852Z" fill="#160B00"/>
</svg>
