<svg width="77" height="74" viewBox="0 0 77 74" fill="none" xmlns="http://www.w3.org/2000/svg">
<path d="M57.5502 17.3144C57.5502 24.6212 54.0557 31.1124 48.6458 35.209C43.6546 31.0956 40.4746 24.8651 40.4746 17.8929C40.4746 10.9207 43.9691 4.09485 49.379 0C54.3702 4.11335 57.5502 10.3422 57.5502 17.3144Z" fill="#008059"/>
<path d="M76.4775 17.3144C76.4775 24.6212 72.983 31.1124 67.5731 35.209C62.5819 31.0956 59.4019 24.8651 59.4019 17.8929C59.4019 10.9207 62.8964 4.09485 68.3063 0C73.2974 4.11335 76.4775 10.3422 76.4775 17.3144Z" fill="#008059"/>
<path d="M18.4429 35.1823C28.1503 35.1823 36.0197 27.3129 36.0197 17.6055C36.0197 7.89818 28.1503 0.0288086 18.4429 0.0288086C8.73558 0.0288086 0.866211 7.89818 0.866211 17.6055C0.866211 27.3129 8.73558 35.1823 18.4429 35.1823Z" fill="#FFAB02"/>
<path d="M34.8659 38.6738H2.01799C0.903487 38.6738 0 39.5773 0 40.6918V52.5475C0 53.662 0.903487 54.5655 2.01799 54.5655H34.8659C35.9804 54.5655 36.8839 53.662 36.8839 52.5475V40.6918C36.8839 39.5773 35.9804 38.6738 34.8659 38.6738Z" fill="#FF5001"/>
<path d="M34.8659 57.6074H2.01799C0.903487 57.6074 0 58.5109 0 59.6254V71.4811C0 72.5956 0.903487 73.4991 2.01799 73.4991H34.8659C35.9804 73.4991 36.8839 72.5956 36.8839 71.4811V59.6254C36.8839 58.5109 35.9804 57.6074 34.8659 57.6074Z" fill="#FF5001"/>
<path d="M57.6937 55.9792L49.2753 70.5608C44.6591 67.48 41.5884 62.2652 41.4757 56.3256C41.4724 56.2112 41.4707 56.0952 41.4707 55.9792C41.4707 55.8631 41.4707 55.7488 41.4757 55.6327C41.5867 49.6948 44.6575 44.4799 49.2736 41.3975L57.6937 55.9792Z" fill="#26DCFF"/>
<path d="M57.6937 55.9792L49.2753 70.5608C44.6591 67.48 41.5884 62.2652 41.4757 56.3256C41.4724 56.2112 41.4707 56.0952 41.4707 55.9792C41.4707 55.8631 41.4707 55.7488 41.4757 55.6327C41.5867 49.6948 44.6575 44.4799 49.2736 41.3975L57.6937 55.9792Z" fill="#26DCFF"/>
<path d="M76.4788 57.104C76.1072 62.9932 72.8229 68.092 68.0537 70.9811C67.8553 71.0988 67.6568 71.2131 67.455 71.3275C64.946 72.7115 62.0619 73.5002 58.9946 73.5002C56.203 73.5002 53.5662 72.8494 51.2236 71.6874L59.6437 57.104H76.4805H76.4788Z" fill="#26DCFF"/>
<path d="M76.4788 57.104C76.1072 62.9932 72.8229 68.092 68.0537 70.9811C67.8553 71.0988 67.6568 71.2131 67.455 71.3275C64.946 72.7115 62.0619 73.5002 58.9946 73.5002C56.203 73.5002 53.5662 72.8494 51.2236 71.6874L59.6437 57.104H76.4805H76.4788Z" fill="#26DCFF"/>
<path d="M76.4783 54.8547H59.6415L51.2197 40.2713C53.5606 39.1093 56.2008 38.4585 58.9924 38.4585C62.0614 38.4585 64.9438 39.2472 67.4528 40.6329C67.6546 40.7439 67.8531 40.8599 68.0515 40.9793C72.8224 43.8667 76.105 48.9672 76.4766 54.8547H76.4783Z" fill="#26DCFF"/>
<path d="M76.4783 54.8547H59.6415L51.2197 40.2713C53.5606 39.1093 56.2008 38.4585 58.9924 38.4585C62.0614 38.4585 64.9438 39.2472 67.4528 40.6329C67.6546 40.7439 67.8531 40.8599 68.0515 40.9793C72.8224 43.8667 76.105 48.9672 76.4766 54.8547H76.4783Z" fill="#26DCFF"/>
</svg>
