<svg width="21" height="22" viewBox="0 0 21 22" fill="none" xmlns="http://www.w3.org/2000/svg">
<g filter="url(#filter0_d_412_102)">
<path fill-rule="evenodd" clip-rule="evenodd" d="M6.88499 15.5522C7.03528 15.6876 7.13905 15.7848 7.4597 16.0894C7.77376 16.3878 7.92564 16.5287 8.06452 16.6466C8.12244 16.6954 8.17182 16.8259 8.19139 17.0198C8.20748 17.1794 8.20188 17.3573 8.18237 17.5288C8.17562 17.5881 8.16911 17.6309 8.16538 17.6513C8.12351 17.8801 8.29787 18.0914 8.53045 18.0938C8.73975 18.0959 8.90102 18.0985 9.32787 18.1061C9.43467 18.108 9.43467 18.108 9.54182 18.1099C10.7021 18.1298 11.2947 18.1244 11.72 18.0709C12.1747 18.0137 12.6429 17.4647 13.0476 16.7758C13.3905 17.3854 13.8662 17.9806 14.3466 18.058C14.4992 18.0824 14.6838 18.09 14.8978 18.085C15.0573 18.0814 15.2261 18.0709 15.3965 18.0556C15.525 18.0442 15.6273 18.0326 15.6885 18.0247C15.9144 17.9954 16.0622 17.7731 16.0019 17.5534C15.9888 17.506 15.9679 17.4189 15.9467 17.3093C15.9222 17.1823 15.9045 17.0582 15.8965 16.9451C15.8914 16.8734 15.8904 16.8085 15.8936 16.7524C15.8993 16.6547 15.901 16.5999 15.9038 16.4734C15.9048 16.4263 15.9048 16.4263 15.9062 16.3851C15.9115 16.2502 15.9296 16.1221 15.9883 15.8429C16.0134 15.7217 16.1355 15.4897 16.3278 15.2026C16.3851 15.1171 16.4477 15.0278 16.5148 14.9357C16.642 14.7609 16.7789 14.5843 16.9159 14.4153C16.9979 14.314 17.0614 14.2383 17.0967 14.1972C17.3929 13.7728 17.7088 13.078 17.8248 12.6718C17.9362 12.2814 18.0254 11.5624 18.0801 10.8558C18.1101 10.4549 18.1213 10.1317 18.1213 9.6248C18.1213 9.53589 18.1213 9.53589 18.1215 9.46246C18.1217 9.34221 18.1218 9.29672 18.1214 9.24051C18.1203 9.08693 18.1158 8.9347 18.101 8.54648C18.0691 7.73283 17.6232 7.20679 16.9661 7.10532C16.4071 7.019 15.7267 7.48328 15.7267 7.48328C15.7267 7.48328 15.5753 6.96047 15.473 6.79907C15.3068 6.53972 14.8788 6.20924 14.5517 6.14486C14.2152 6.07952 13.8163 6.08675 13.4499 6.15154C13.1291 6.20894 12.8096 6.49536 12.6248 6.80431C12.4925 7.0247 12.6169 6.79262 12.4846 6.56463C12.3016 6.25061 11.8753 5.9694 11.4694 5.88641C11.1254 5.81528 10.7314 5.84237 10.3714 5.94934C9.90838 6.08771 9.83467 6.44008 9.81626 6.33919C9.75467 6.00095 9.74898 6.02318 9.7106 5.78189C9.56802 4.88662 9.40847 4.26716 9.16654 3.72661C9.18045 3.75769 9.07793 3.52446 9.04061 3.44404C8.976 3.30479 8.91151 3.17875 8.84062 3.05752C8.62211 2.68387 8.37171 2.40411 8.05753 2.24518C7.51192 1.96889 6.69411 2.10335 6.30647 2.55583C5.92151 3.0055 5.85733 3.75732 5.95427 4.68767C5.9913 5.04888 6.12106 5.70833 6.23872 6.1958C6.28033 6.36498 6.31678 6.51928 6.38364 6.80431C6.39514 6.85279 6.39514 6.85279 6.40673 6.90129C6.45846 7.11701 6.50381 7.29449 6.55796 7.48925C6.55228 7.46895 6.65497 7.83334 6.67685 7.91398C6.68412 7.9409 6.68412 7.9409 6.69133 7.96793C6.73216 8.12171 6.77207 8.28753 6.83443 8.56424C6.86856 8.71639 6.90185 8.87893 6.93443 9.05123C7.02326 9.52117 7.0237 9.42331 6.93819 9.3231C6.87911 9.25387 6.82355 9.191 6.76988 9.13306C6.67011 9.02536 6.57839 8.93629 6.49132 8.86525C5.85692 8.34619 5.46819 8.11685 4.9345 8.06646C4.05909 7.98236 3.22831 8.60073 3.10339 9.43529C3.02656 9.94699 3.05131 10.1825 3.28802 10.6347C3.41828 10.879 3.63863 11.1741 4.04975 11.6821C4.07491 11.7131 4.07491 11.7131 4.10005 11.7441C4.6047 12.366 4.65968 12.4351 4.77967 12.6089C5.10402 13.0796 5.89362 14.431 6.03715 14.6125L6.88499 15.5522Z" fill="black"/>
<path fill-rule="evenodd" clip-rule="evenodd" d="M4.68284 11.2715C4.65795 11.2409 4.65795 11.2409 4.63313 11.2102C4.25584 10.7441 4.04895 10.467 3.95157 10.2844C3.79875 9.99241 3.79044 9.91329 3.84551 9.54648C3.91025 9.114 4.37733 8.76634 4.86381 8.81308C5.20041 8.84486 5.49449 9.01836 6.0172 9.44603C6.0738 9.49221 6.14203 9.55847 6.22009 9.64273C6.26625 9.69257 6.31522 9.74798 6.36809 9.80993C6.4475 9.90299 6.71512 10.2305 6.6757 10.1828C6.73385 10.2527 6.77542 10.3069 6.82292 10.3733C6.91703 10.5076 6.96997 10.5822 7.04167 10.6778C7.00805 10.6329 7.2564 10.9762 7.30899 11.0264C7.58759 11.2924 7.99102 11.0684 7.96575 10.714C7.96153 10.6548 7.94762 10.5909 7.91857 10.4793C7.8037 9.66008 7.76351 9.39713 7.67179 8.91191C7.63771 8.73167 7.60274 8.56093 7.56658 8.39972C7.50222 8.11415 7.46022 7.93965 7.41663 7.77547C7.40888 7.7464 7.40888 7.7464 7.40111 7.71764C7.3781 7.63282 7.27385 7.26293 7.2808 7.28775C7.22945 7.10307 7.18625 6.93401 7.13648 6.72641C7.12517 6.67912 7.12517 6.67912 7.11388 6.63151C7.04739 6.348 7.01 6.18975 6.96782 6.01824C6.85783 5.56256 6.73356 4.93104 6.70071 4.61056C6.62525 3.88634 6.67732 3.27637 6.87654 3.04367C7.03209 2.8621 7.47295 2.78962 7.71925 2.91435C7.88033 2.99583 8.0413 3.17566 8.19361 3.43612C8.25125 3.53469 8.30533 3.64038 8.36069 3.75969C8.39422 3.83195 8.49362 4.05806 8.48242 4.03306C8.69274 4.50298 8.83722 5.06393 8.97034 5.89978C9.00973 6.14744 9.05847 6.42801 9.12098 6.77128C9.13955 6.87307 9.13955 6.87307 9.1582 6.97442C9.4596 8.60976 9.43754 8.48582 9.44188 8.61625C9.45768 9.09203 10.16 9.10317 10.1909 8.62814C10.2007 8.47748 10.1972 8.34297 10.1798 7.95667C10.1773 7.90202 10.1773 7.90202 10.175 7.84757C10.1598 7.49166 10.1606 7.2869 10.1817 7.17051C10.22 6.95828 10.4106 6.72053 10.586 6.6681C10.8325 6.59486 11.1024 6.5763 11.3187 6.62103C11.5258 6.66336 11.7674 6.82275 11.8367 6.94165C11.9202 7.08565 11.9919 7.30503 12.0468 7.57696C12.0911 7.79644 12.1216 8.03189 12.143 8.2832C12.1497 8.36139 12.154 8.4218 12.1607 8.52175C12.1636 8.56358 12.1636 8.56358 12.1664 8.5981C12.168 8.61541 12.168 8.61541 12.1719 8.64277C12.175 8.66195 12.175 8.66195 12.1893 8.71051C12.1966 8.84833 12.1966 8.84833 12.7501 8.89944C12.9154 8.69961 12.9154 8.69961 12.9109 8.66458C12.9379 8.54623 12.9545 8.41431 12.9781 8.16644C12.9932 8.00531 13.0008 7.9261 13.0097 7.84394C13.0465 7.50382 13.0932 7.28772 13.1502 7.19273C13.2209 7.07454 13.47 6.90992 13.5817 6.88993C13.8623 6.84032 14.1703 6.83473 14.4082 6.88092C14.5159 6.90212 14.7787 7.10506 14.8409 7.20213C14.9687 7.40369 15.0929 8.05351 15.1629 8.69825C15.1518 8.74054 15.1518 8.74054 15.3236 8.98585C15.9139 8.91855 15.9139 8.91855 15.8973 8.81196C15.9129 8.77397 15.9253 8.73005 15.9428 8.66182C15.985 8.50212 16.013 8.40938 16.0547 8.30546C16.0835 8.23357 16.1139 8.17211 16.145 8.12318C16.2657 7.93326 16.5781 7.80422 16.8521 7.84653C17.1463 7.89197 17.3338 8.11318 17.352 8.5755C17.3665 8.95593 17.3708 9.10218 17.3718 9.24573C17.3722 9.29869 17.3722 9.34122 17.3719 9.46082C17.3717 9.53474 17.3717 9.53473 17.3717 9.6248C17.3717 10.1137 17.3612 10.4183 17.3327 10.7988C17.2821 11.4521 17.1966 12.1416 17.1041 12.4659C17.0096 12.7965 16.7276 13.4168 16.5043 13.7394C16.4885 13.7547 16.4205 13.8358 16.3336 13.943C16.189 14.1215 16.0444 14.308 15.9088 14.4943C15.8363 14.594 15.7681 14.6912 15.7051 14.7852C15.4615 15.149 15.3051 15.446 15.2545 15.6895C15.1881 16.0059 15.1643 16.1737 15.1572 16.3557C15.1555 16.4072 15.1555 16.4072 15.1544 16.4572C15.1518 16.5752 15.1503 16.6229 15.1453 16.7092C15.1401 16.7999 15.1415 16.8964 15.1488 16.9983C15.1592 17.1443 15.1488 17.3438 15.1488 17.3438C15.1488 17.3438 15.0222 17.332 14.8809 17.3352C14.7084 17.3392 14.565 17.3333 14.4658 17.3175C14.3228 17.2944 13.9365 16.811 13.7387 16.4344C13.4364 15.858 12.7026 15.886 12.4018 16.395C12.1305 16.8568 11.7422 17.3122 11.6269 17.3267C11.2523 17.3738 10.6722 17.3792 9.55513 17.36C9.44834 17.3581 9.44834 17.3581 9.34165 17.3562C8.91275 17.3486 8.92923 17.421 8.93801 17.3438C8.96308 17.1235 8.96024 17.1648 8.93801 16.9445C8.90075 16.5752 8.78676 16.274 8.54924 16.074C8.42637 15.9696 8.27941 15.8332 7.98423 15.5529C7.64701 15.2325 7.5414 15.1335 7.41124 15.0191L6.60994 14.1284C6.52198 14.0159 5.74991 12.6945 5.39745 12.183C5.26034 11.9844 5.20906 11.92 4.68284 11.2715ZM14.1916 11.2753V14.7343C14.1916 15.2343 14.9416 15.2343 14.9416 14.7343V11.2753C14.9416 10.7753 14.1916 10.7753 14.1916 11.2753ZM12.16 11.2747L12.176 14.7477C12.1783 15.2477 12.9283 15.2443 12.926 14.7443L12.91 11.2713C12.9077 10.7713 12.1577 10.7747 12.16 11.2747ZM10.9509 14.7283L10.9299 11.3023C10.9268 10.8023 10.1768 10.8069 10.1799 11.3069L10.2009 14.7329C10.2039 15.2329 10.9539 15.2283 10.9509 14.7283Z" fill="white"/>
</g>
<defs>
<filter id="filter0_d_412_102" x="-2" y="-1" width="24" height="24" filterUnits="userSpaceOnUse" color-interpolation-filters="sRGB">
<feFlood flood-opacity="0" result="BackgroundImageFix"/>
<feColorMatrix in="SourceAlpha" type="matrix" values="0 0 0 0 0 0 0 0 0 0 0 0 0 0 0 0 0 0 127 0" result="hardAlpha"/>
<feOffset dy="1"/>
<feGaussianBlur stdDeviation="1"/>
<feColorMatrix type="matrix" values="0 0 0 0 0 0 0 0 0 0 0 0 0 0 0 0 0 0 0.298656 0"/>
<feBlend mode="normal" in2="BackgroundImageFix" result="effect1_dropShadow_412_102"/>
<feBlend mode="normal" in="SourceGraphic" in2="effect1_dropShadow_412_102" result="shape"/>
</filter>
</defs>
</svg>
