<svg width="14" height="14" viewBox="0 0 14 14" fill="none" xmlns="http://www.w3.org/2000/svg">
<path fill-rule="evenodd" clip-rule="evenodd" d="M8.82634 2.44637C9.0796 2.34147 9.35104 2.28748 9.62516 2.28748C9.89929 2.28748 10.1707 2.34147 10.424 2.44637C10.6772 2.55127 10.9074 2.70503 11.1012 2.89887C11.295 3.0927 11.4488 3.32281 11.5537 3.57607C11.6586 3.82933 11.7126 4.10077 11.7126 4.37489C11.7126 4.64901 11.6586 4.92045 11.5537 5.17371C11.4488 5.42697 11.295 5.65708 11.1012 5.85092L10.5237 6.42845C10.5217 6.43044 10.5198 6.4324 10.5179 6.43436C10.5159 6.43631 10.5139 6.43825 10.5119 6.44016L4.97619 11.9759C4.89414 12.058 4.78286 12.1041 4.66683 12.1041H2.3335C2.09187 12.1041 1.896 11.9082 1.896 11.6666V9.33322C1.896 9.21719 1.94209 9.10591 2.02414 9.02387L8.14914 2.89887C8.34297 2.70503 8.57309 2.55127 8.82634 2.44637ZM10.2084 5.50623L10.4825 5.2322C10.5951 5.11962 10.6844 4.98596 10.7453 4.83886C10.8062 4.69177 10.8376 4.53411 10.8376 4.37489C10.8376 4.21567 10.8062 4.05802 10.7453 3.91092C10.6844 3.76382 10.5951 3.63017 10.4825 3.51758C10.3699 3.405 10.2362 3.3157 10.0891 3.25477C9.94204 3.19384 9.78438 3.16248 9.62516 3.16248C9.46595 3.16248 9.30829 3.19384 9.16119 3.25477C9.01409 3.3157 8.88044 3.405 8.76786 3.51758L8.49383 3.79161L10.2084 5.50623ZM7.87511 4.41033L9.58972 6.12495L4.48561 11.2291H2.771V9.51444L7.87511 4.41033Z" fill="#18628A"/>
</svg>
