<svg width="14" height="14" viewBox="0 0 14 14" fill="none" xmlns="http://www.w3.org/2000/svg">
<path fill-rule="evenodd" clip-rule="evenodd" d="M7 3.79167C6.27513 3.79167 5.6875 4.3793 5.6875 5.10417C5.6875 5.82905 6.27513 6.41667 7 6.41667C7.72487 6.41667 8.3125 5.82905 8.3125 5.10417C8.3125 4.3793 7.72487 3.79167 7 3.79167ZM4.8125 5.10417C4.8125 3.89605 5.79188 2.91667 7 2.91667C8.20812 2.91667 9.1875 3.89605 9.1875 5.10417C9.1875 6.31229 8.20812 7.29167 7 7.29167C5.79188 7.29167 4.8125 6.31229 4.8125 5.10417Z" fill="#A35900"/>
<path fill-rule="evenodd" clip-rule="evenodd" d="M3.0625 10.3542C3.0625 8.17955 4.82538 6.41667 7 6.41667C9.17462 6.41667 10.9375 8.17955 10.9375 10.3542V10.6458C10.9375 10.8875 10.7416 11.0833 10.5 11.0833C10.2584 11.0833 10.0625 10.8875 10.0625 10.6458V10.3542C10.0625 8.6628 8.69137 7.29167 7 7.29167C5.30863 7.29167 3.9375 8.6628 3.9375 10.3542V10.6458C3.9375 10.8875 3.74162 11.0833 3.5 11.0833C3.25838 11.0833 3.0625 10.8875 3.0625 10.6458V10.3542Z" fill="#A35900"/>
</svg>
