<svg width="20" height="19" viewBox="0 0 20 19" fill="none" xmlns="http://www.w3.org/2000/svg">
<path d="M8.39072 8.43868C8.39072 9.06251 8.42643 9.71074 8.77589 10.2472C9.12651 10.7854 9.42799 11.6581 10.0805 11.9768C10.4267 12.1459 10.9993 12.5674 11.41 12.5897C11.8463 12.6134 11.8468 11.8363 12.0809 11.4731C12.2836 11.1586 12.5459 10.6994 12.6462 10.3564C12.719 10.1078 14.1317 10.1795 14.305 10.1926C15.098 10.2521 15.7247 10.7583 16.4669 10.9269C17.0581 11.0612 17.5932 11.2192 18.1194 11.5216C19.206 12.146 18.7193 13.4877 19.0699 14.4468C19.3889 15.3193 19.0973 16.6594 18.4549 17.287C18.155 17.5799 17.9937 17.9443 17.5541 18.0516C17.3031 18.1129 17.1093 18.3705 16.8645 18.3794C16.4613 18.3939 16.0773 18.4886 15.6717 18.4886C13.983 18.4886 12.2868 18.6894 10.8074 17.8392C10.172 17.4741 9.53133 16.9848 8.94984 16.5466C7.74347 15.6375 6.41911 14.9027 5.37147 13.8399C3.51393 11.9555 2.07538 9.40748 1.51975 6.84865C1.32507 5.95207 1.23398 5.01329 1.23398 4.09342C1.23398 3.53022 1.07122 2.6922 1.45763 2.27278C1.77215 1.93139 1.80235 1.4586 2.18448 1.16826C2.69701 0.778847 3.08039 0.573519 3.81214 0.573519C5.12177 0.573519 6.74205 0.186083 7.60795 1.31391C8.35643 2.28882 9.01541 3.47109 9.67048 4.51823C9.98423 5.01977 9.98658 5.6385 10.2047 6.14467C10.3652 6.51699 10.1163 6.80263 9.9314 7.12782C9.87439 7.22807 9.06711 7.85109 8.94984 7.84393C8.85908 7.83839 8.61736 5.3872 8.34102 5.97475C8.30274 6.05612 8.0251 6.98817 7.96827 6.88506C7.88848 6.7403 8.1032 6.09854 8.11737 5.97475C8.19837 5.26696 8.30313 4.55179 8.37208 3.8446C8.4362 3.18692 7.42996 4.87782 7.29732 5.52565C7.12628 6.3611 7.84726 5.38752 7.98069 5.13725C8.35593 4.43345 8.5483 2.98633 7.65143 2.57622C6.85353 2.21137 5.4001 2.70527 4.84962 3.32875C4.54687 3.67165 4.67126 5.12741 5.17267 4.61534C5.82883 3.94522 6.27904 2.74939 6.26606 1.82369C6.24858 0.576921 3.12859 1.40718 3.48288 2.96462C3.60792 3.51426 4.23082 2.92976 4.31535 2.67332C4.39482 2.43226 4.40818 2.18191 4.06685 2.17568C2.98377 2.1559 2.10022 2.9163 1.74961 3.86887C0.887202 6.21199 4.76008 4.98407 4.81235 3.65647C4.83198 3.15795 3.94819 4.32414 3.93018 4.35438C3.53168 5.02346 2.99479 7.16429 4.3899 7.13995C5.44814 7.12149 6.17136 5.66701 6.35303 4.7974C6.40937 4.52774 6.11389 4.67626 5.98029 4.73671C5.22324 5.07924 4.53148 5.55577 4.07307 6.24784C3.56557 7.01401 3.57963 8.02079 4.66325 7.20064C5.08343 6.88263 6.35303 5.77011 6.35303 5.13725C6.35303 4.94507 6.02811 5.3557 5.88089 5.48317C5.31851 5.97012 4.74743 6.49863 4.35884 7.13389C3.73216 8.15837 3.39721 10.0654 5.20994 9.67671C5.80128 9.54991 6.83132 8.95411 6.70714 8.22627C6.67492 8.03737 3.97289 10.3003 5.37147 10.7691C6.52711 11.1565 6.83821 9.2234 6.82518 8.53578C6.81954 8.23811 6.60265 8.4873 6.50213 8.6086C5.94548 9.28033 5.6171 10.1543 5.50814 11.0058C5.31246 12.535 6.86107 11.616 7.54582 11.0725C7.83777 10.8408 8.44355 10.0068 8.08009 10.1015C7.00551 10.3815 7.25992 11.6288 8.03039 12.0678C9.00382 12.6225 10.0598 10.941 9.9314 10.1258C9.86749 9.71998 9.21462 10.5029 9.20455 10.5142C8.64156 11.1442 8.0494 11.875 7.79432 12.6868C7.55548 13.447 8.03618 14.0934 8.82559 13.5425C9.30827 13.2057 9.71496 12.0353 8.83801 12.79C8.26365 13.2843 7.3283 15.2936 8.49011 15.6241C9.56189 15.9291 10.9251 15.4318 10.8322 14.1615C10.809 13.8438 10.5006 14.0607 10.3787 14.1798C9.93974 14.6086 9.33375 15.4117 9.40956 16.0611C9.57318 17.4628 12.5862 16.6668 13.137 15.964C13.4696 15.5396 13.5363 14.8125 13.1246 14.4104C12.3001 13.6049 11.7516 15.0855 11.6398 15.6363C11.477 16.4383 11.5695 17.1595 12.5841 16.8622C13.7862 16.5099 14.8072 15.3576 14.9759 14.1312C15.0739 13.4192 14.5767 12.8807 13.8825 12.7354C12.8972 12.5291 12.7454 13.844 12.7519 14.5014C12.7714 16.5079 14.2151 16.7597 15.8581 16.1643C16.3956 15.9694 17.2965 15.6808 17.5292 15.084C17.7562 14.502 17.3544 13.9497 16.7775 13.7792C15.5384 13.413 15.212 14.3703 15.212 15.3146C15.212 16.1044 15.6538 16.5296 16.5042 15.9883C17.1198 15.5963 17.9874 13.7061 16.9266 13.3423C15.6779 12.914 14.79 15.6068 15.3921 15.7091C16.572 15.9095 16.194 12.1827 15.6593 11.6794C15.2252 11.2709 14.6016 11.1584 14.2056 11.6005C13.8824 11.9613 14.0321 11.4468 13.9074 11.2364C13.8265 11.0999 13.6339 11.0133 13.4787 11.0847C13.4095 11.1165 13.0471 11.5461 13.137 11.558C13.8943 11.6589 14.7416 11.2593 15.535 11.4002C15.8374 11.454 16.5018 12.2474 16.703 12.4805C16.9514 12.7684 16.8907 13.1761 17.0881 13.5001C17.2981 13.8446 17.4393 13.9657 17.5044 14.4104C17.608 15.1189 17.7346 15.9425 16.9142 16.231C16.3494 16.4296 15.7478 16.6022 15.1499 16.6376C14.8167 16.6573 14.3209 16.7365 14.0937 17.0139C14.0017 17.1262 13.6363 17.0706 13.6961 17.202C13.7706 17.3656 14.3642 17.3679 14.4665 17.3719C15.5725 17.4155 16.7514 17.2745 17.8274 17.026C18.2851 16.9203 18.1194 16.3847 18.1194 16.0125C18.1194 15.0959 18.033 14.2033 17.8709 13.3058C17.7795 12.7998 17.4241 12.4487 17.113 12.0435" stroke="black" stroke-width="0.75" stroke-linecap="round"/>
</svg>
