<svg width="35" height="30" viewBox="0 0 35 30" fill="none" xmlns="http://www.w3.org/2000/svg">
<path d="M1.1001 13.1177C1.11854 13.3486 1.27731 14.0913 1.95625 15.6928C2.29499 16.4918 2.91661 17.3297 3.46001 17.8534C3.66825 18.054 3.96787 18.0908 4.21314 18.0873C4.46341 18.0837 4.68783 17.408 4.975 15.9217C5.76623 11.8264 6.00778 10.6807 6.40611 10.2105C6.48566 10.1165 6.64988 10.1536 6.77037 10.1949C7.3186 10.3825 7.4913 11.1656 7.97847 13.0456C8.40061 14.6746 9.05141 17.7056 9.43551 19.3208C9.84924 21.0605 10.0282 21.27 10.2032 21.4425C10.2911 21.5291 10.4226 21.5603 10.5233 21.5276C10.7411 21.4567 11.0029 20.4312 11.6402 17.06C12.1171 14.5371 12.659 10.3221 13.1204 7.43166C13.5817 4.5412 13.8831 3.09191 14.0661 2.28149C14.2491 1.47107 14.3046 1.34343 14.3961 1.29572C14.4876 1.248 14.6135 1.28408 14.715 1.35936C15.133 1.66923 15.3409 2.97313 15.6983 5.38681C15.9136 6.84116 15.8843 8.79941 15.9192 9.89799C15.9541 10.9966 15.9738 11.1858 16.1848 13.6448C16.3958 16.1037 16.7975 20.8266 17.0411 23.4114C17.3671 26.8702 17.8516 27.553 18.5469 28.2834C18.7057 28.4501 18.8632 28.4644 18.9822 28.4388C19.1012 28.4133 19.1999 28.3222 19.3049 25.6877C19.41 23.0532 19.5184 17.8781 19.6897 14.5883C19.861 11.2985 20.092 10.0509 20.5138 8.47784C20.9356 6.90474 21.5411 5.04391 21.9666 3.83124C22.3922 2.61857 22.6195 2.11045 22.7837 1.79701C22.948 1.48357 23.0423 1.3802 23.6301 4.74942C24.218 8.11864 25.2965 14.9636 25.8521 18.6747C26.4077 22.3859 26.4077 22.7559 26.4373 22.8449C26.4669 22.9339 26.5261 22.7307 26.8335 20.9281C27.141 19.1255 27.6949 15.7296 28.0556 13.7392C28.5059 11.2548 28.929 10.1647 29.3012 9.31967C29.4186 9.05307 29.585 9.22427 29.7136 9.44307C30.0036 9.9364 30.6479 11.915 31.5699 14.6898C32.114 16.3273 32.5374 16.8958 32.8408 17.0251C33.0346 17.1076 33.3573 17.0744 33.5642 17.0353C33.771 16.9962 33.8645 16.9139 33.9284 16.7941C33.9922 16.6744 34.0236 16.5197 34.1 16.2109" stroke="black" stroke-width="1.21236" stroke-linecap="round"/>
</svg>
