<svg width="50" height="44" viewBox="0 0 50 44" fill="none" xmlns="http://www.w3.org/2000/svg">
<path d="M48.3407 19.092L38.9746 2.90796C37.933 1.10761 36.0102 0 33.9271 0H15.1948C13.1117 0 11.1889 1.10761 10.1473 2.90796L0.781151 19.092C-0.260384 20.8886 -0.260384 23.1076 0.781151 24.9118L10.1511 41.0958C11.1927 42.8924 13.1155 44 15.1986 44H22.1345V40.2661C21.9705 40.1976 21.8102 40.1138 21.6538 40.0263L10.3839 33.5329C8.57931 32.4938 7.4691 30.5754 7.4691 28.4972V15.5104C7.4691 13.4322 8.57931 11.5062 10.3839 10.4671L21.6538 3.9737C23.4546 2.9346 25.6788 2.9346 27.4795 3.9737L38.7495 10.4671C40.554 11.5062 41.6642 13.4322 41.6642 15.5104V28.4972C41.6642 30.5754 40.554 32.4938 38.7495 33.5329L27.4795 40.0263C27.3193 40.1138 27.1629 40.1976 26.9988 40.2661V44H33.9348C36.0178 44 37.9407 42.8924 38.9822 41.0958L48.3522 24.9118C49.3937 23.1114 49.3937 20.8886 48.3522 19.092H48.3407Z" fill="#0D3321"/>
</svg>
